<svg version="1.2" xmlns="http://www.w3.org/2000/svg" viewBox="0 0 16 16" width="16" height="16">
	<title>favicon-svg</title>
	<style>
		.s0 { fill: #dddddd } 
		.s1 { fill: #000000 } 
	</style>
	<path id="Layer" class="s0" d="m15.5 8q0 0.1 0 0.3 0 0.1-0.1 0.3 0 0.1 0 0.3 0 0.1 0 0.3-0.1 0.1-0.1 0.2 0 0.2-0.1 0.3 0 0.2-0.1 0.3 0 0.2-0.1 0.3 0 0.1-0.1 0.3-0.1 0.1-0.1 0.2-0.1 0.1-0.2 0.3-0.1 0.1-0.1 0.2-0.1 0.1-0.2 0.3-0.1 0.1-0.2 0.2-0.1 0.1-0.2 0.2-0.1 0.1-0.2 0.2-0.1 0.1-0.2 0.2-0.1 0.1-0.2 0.2-0.1 0.1-0.2 0.2-0.2 0.1-0.3 0.2-0.1 0.1-0.2 0.1-0.2 0.1-0.3 0.2-0.1 0-0.3 0.1-0.1 0.1-0.2 0.1-0.2 0.1-0.3 0.1-0.1 0.1-0.3 0.1-0.1 0.1-0.3 0.1-0.1 0-0.2 0.1-0.2 0-0.3 0-0.2 0-0.3 0.1-0.2 0-0.3 0-0.2 0-0.3 0-0.2 0-0.3 0-0.2 0-0.3 0-0.1-0.1-0.3-0.1-0.1 0-0.3 0-0.1-0.1-0.3-0.1-0.1 0-0.3-0.1-0.1 0-0.2-0.1-0.2 0-0.3-0.1-0.1 0-0.3-0.1-0.1-0.1-0.2-0.1-0.2-0.1-0.3-0.2-0.1 0-0.2-0.1-0.2-0.1-0.3-0.2-0.1-0.1-0.2-0.2-0.1-0.1-0.2-0.2-0.1-0.1-0.2-0.2-0.1-0.1-0.2-0.2-0.1-0.1-0.2-0.2-0.1-0.1-0.2-0.2-0.1-0.2-0.2-0.3-0.1-0.1-0.1-0.2-0.1-0.2-0.2-0.3-0.1-0.1-0.1-0.2-0.1-0.2-0.1-0.3-0.1-0.1-0.1-0.3-0.1-0.1-0.1-0.3-0.1-0.1-0.1-0.3-0.1-0.1-0.1-0.2 0-0.2 0-0.3-0.1-0.2-0.1-0.3 0-0.2 0-0.3 0-0.2 0-0.3 0-0.2 0-0.3 0-0.1 0-0.3 0-0.1 0.1-0.3 0-0.1 0-0.3 0-0.1 0.1-0.3 0-0.1 0.1-0.2 0-0.2 0.1-0.3 0-0.2 0.1-0.3 0-0.1 0.1-0.3 0-0.1 0.1-0.2 0.1-0.2 0.2-0.3 0-0.1 0.1-0.2 0.1-0.2 0.2-0.3 0.1-0.1 0.2-0.2 0.1-0.1 0.2-0.2 0.1-0.1 0.2-0.2 0.1-0.1 0.2-0.2 0.1-0.1 0.2-0.2 0.1-0.1 0.2-0.2 0.1-0.1 0.3-0.2 0.1-0.1 0.2-0.1 0.1-0.1 0.3-0.2 0.1-0.1 0.2-0.1 0.2-0.1 0.3-0.1 0.1-0.1 0.3-0.1 0.1-0.1 0.2-0.1 0.2-0.1 0.3-0.1 0.2-0.1 0.3-0.1 0.2 0 0.3 0 0.2-0.1 0.3-0.1 0.1 0 0.3 0 0.1 0 0.3 0 0.1 0 0.3 0 0.1 0 0.3 0 0.1 0 0.3 0.1 0.1 0 0.3 0 0.1 0 0.2 0.1 0.2 0 0.3 0.1 0.2 0 0.3 0.1 0.1 0 0.3 0.1 0.1 0 0.2 0.1 0.2 0 0.3 0.1 0.1 0.1 0.3 0.2 0.1 0 0.2 0.1 0.1 0.1 0.3 0.2 0.1 0.1 0.2 0.2 0.1 0.1 0.2 0.2 0.1 0.1 0.2 0.2 0.1 0.1 0.2 0.2 0.1 0.1 0.2 0.2 0.1 0.1 0.2 0.2 0.1 0.1 0.2 0.3 0 0.1 0.1 0.2 0.1 0.1 0.2 0.3 0 0.1 0.1 0.2 0.1 0.2 0.1 0.3 0.1 0.1 0.1 0.3 0.1 0.1 0.1 0.3 0.1 0.1 0.1 0.2 0 0.2 0.1 0.3 0 0.2 0 0.3 0 0.2 0 0.3 0.1 0.2 0.1 0.3 0 0.1 0 0.3z"/>
	<path id="Layer" class="s1" d="m12.1 13.4v0.9h-5.6v-1h0.1c-1.8-1.1-3.1-3-3.1-5.3h2l-4.5-2 0.2-0.4 4.1 1.8-3.5-3.3 0.3-0.3 4.3 4.1 0.1 0.1h9c0 2.4-1.4 4.4-3.4 5.4z"/>
	<path id="Layer" class="s1" d="m6.5 13h0.5v0.4h-0.5z"/>
</svg>