<svg width="547" height="100" viewBox="0 0 547 100" fill="none" xmlns="http://www.w3.org/2000/svg">
<path d="M0.400625 1.68H79.2206V24.08H0.400625V1.68ZM25.7406 29.68H53.7406V98H25.7406V29.68ZM143.068 49.84C143.068 41.72 143.022 36.4 142.928 33.88C142.742 30.0533 142.228 27.3 141.388 25.62C140.548 23.8467 139.195 22.7733 137.328 22.4C135.462 22.12 132.802 21.98 129.348 21.98C125.335 21.98 122.722 22.1667 121.508 22.54V0.699993C122.348 0.606661 123.608 0.559994 125.288 0.559994H129.348C139.802 0.559994 147.875 1.39999 153.568 3.08C159.355 4.66666 163.555 7.32666 166.168 11.06C168.595 14.5133 170.088 19.04 170.648 24.64C171.302 30.24 171.628 38.64 171.628 49.84C171.628 59.64 171.395 67.2 170.928 72.52C170.555 77.7467 169.528 82.0867 167.848 85.54C165.982 89.46 163.088 92.4467 159.168 94.5C155.342 96.5533 149.975 97.9067 143.068 98.56V49.84ZM129.348 99.12C115.722 99.12 105.922 97.6267 99.9483 94.64C96.8683 93.1467 94.4416 91.14 92.6683 88.62C90.8949 86.1 89.5883 82.9733 88.7483 79.24C88.0016 75.9733 87.5349 72.24 87.3483 68.04C87.1616 63.7467 87.0683 57.68 87.0683 49.84C87.0683 40.04 87.2549 32.5267 87.6283 27.3C88.0949 22.0733 89.1683 17.6867 90.8483 14.14C92.7149 10.3133 95.5616 7.37333 99.3883 5.31999C103.215 3.26666 108.628 1.86666 115.628 1.12V49.84C115.628 55.3467 115.722 60.62 115.908 65.66C116.095 69.4867 116.562 72.2867 117.308 74.06C118.148 75.8333 119.502 76.86 121.368 77.14C122.955 77.5133 125.615 77.7 129.348 77.7C133.175 77.7 135.788 77.56 137.188 77.28V98.98C136.348 99.0733 135.088 99.12 133.408 99.12H129.348ZM187.342 1.68H215.342V98H187.342V1.68ZM221.222 64.26V34.16L243.342 1.68H273.862L240.682 47.04L274.282 98H242.922L221.222 64.26ZM349.269 23.8C346.189 23.4267 340.775 22.9133 333.029 22.26C328.735 22.0733 325.282 21.98 322.669 21.98C319.309 21.98 316.135 22.0733 313.149 22.26V0.559994H316.649C324.302 0.559994 332.235 1.07333 340.449 2.09999C343.062 2.47333 346.002 2.98666 349.269 3.64V23.8ZM326.169 69.58C326.169 67.62 326.029 66.22 325.749 65.38C325.469 64.4467 325.002 63.84 324.349 63.56C323.695 63.1867 322.575 62.9067 320.989 62.72L303.769 60.62C293.595 59.5 286.735 56.1867 283.189 50.68C281.602 48.3467 280.529 45.5 279.969 42.14C279.409 38.78 279.129 34.6733 279.129 29.82C279.129 19.46 281.789 11.9933 287.109 7.42C291.402 3.68666 298.122 1.49333 307.269 0.839999V28.98C307.269 30.1933 307.315 31.22 307.409 32.06C307.502 32.9 307.689 33.5533 307.969 34.02C308.249 34.58 308.715 35 309.369 35.28C310.022 35.4667 311.002 35.6067 312.309 35.7L331.629 38.08C335.642 38.64 338.909 39.34 341.429 40.18C343.949 41.02 346.095 42.3267 347.869 44.1C352.069 48.4867 354.169 56.28 354.169 67.48C354.169 79.3333 351.555 87.64 346.329 92.4C343.995 94.5467 341.149 96.1333 337.789 97.16C334.522 98.0933 330.649 98.7 326.169 98.98V69.58ZM318.749 99.12C309.415 99.12 300.735 98.7 292.709 97.86C287.949 97.3933 284.355 96.9267 281.929 96.46V76.02C287.435 76.4867 293.735 76.9533 300.829 77.42C305.309 77.6067 308.482 77.7 310.349 77.7C315.389 77.7 318.702 77.56 320.289 77.28V99.12H318.749ZM390.471 1.68H392.851L403.911 40.04L387.811 98H359.811L390.471 1.68ZM421.971 80.92H398.591L404.471 59.36H415.671L399.151 1.68H424.771L455.431 98H426.871L421.971 80.92ZM464.745 5.6V1.68H492.745L546.785 93.94V98H518.925L464.745 5.6ZM520.185 36.82V1.68H546.785V82.32L520.185 36.82ZM464.745 17.22L491.345 62.72V98H464.745V17.22Z" fill="white"/>
</svg>
