<svg xmlns="http://www.w3.org/2000/svg" xmlns:xlink="http://www.w3.org/1999/xlink" width="630" zoomAndPan="magnify" viewBox="0 0 472.5 119.249998" height="159" preserveAspectRatio="xMidYMid meet" version="1.0"><defs><g/></defs><g fill="#000000" fill-opacity="1"><g transform="translate(1.437971, 98.858394)"><g><path d="M 69.140625 -68.445312 L 58.296875 -68.445312 L 58.296875 -50.9375 L 69.140625 -50.9375 Z M 46.757812 -50.9375 L 46.757812 -68.445312 L 2.289062 -68.445312 L 2.289062 -50.9375 L 24.773438 -50.9375 L 24.773438 0 L 46.757812 0 Z M 46.757812 -50.9375 "/></g></g></g><g fill="#000000" fill-opacity="1"><g transform="translate(73.259865, 98.858394)"><g><path d="M 26.960938 -0.695312 L 26.960938 -67.75 C 12.535156 -63.570312 4.476562 -52.230469 4.476562 -34.222656 C 4.476562 -16.214844 12.535156 -4.875 26.960938 -0.695312 Z M 38.5 -53.027344 C 39.394531 -53.125 40.390625 -53.222656 41.386719 -53.222656 C 51.035156 -53.222656 55.910156 -46.757812 55.910156 -37.40625 L 55.910156 -31.039062 C 55.910156 -21.6875 51.035156 -15.222656 41.386719 -15.222656 C 40.390625 -15.222656 39.394531 -15.320312 38.5 -15.421875 L 38.5 1.09375 C 39.394531 1.195312 40.390625 1.195312 41.386719 1.195312 C 64.765625 1.195312 78.394531 -10.84375 78.394531 -34.222656 C 78.394531 -57.601562 64.765625 -69.640625 41.386719 -69.640625 L 38.5 -69.640625 Z M 38.5 -53.027344 "/></g></g></g><g fill="#000000" fill-opacity="1"><g transform="translate(156.123636, 98.858394)"><g><path d="M 29.347656 0 L 29.347656 -68.445312 L 7.363281 -68.445312 L 7.363281 0 Z M 40.886719 -53.027344 L 40.886719 -24.671875 L 41.285156 -25.070312 L 55.511719 0 L 81.476562 0 L 56.40625 -40.292969 L 80.980469 -68.445312 L 53.722656 -68.445312 Z M 40.886719 -53.027344 "/></g></g></g><g fill="#000000" fill-opacity="1"><g transform="translate(238.987419, 98.858394)"><g><path d="M 39.394531 -69.539062 L 39.394531 -54.519531 C 43.972656 -53.722656 45.761719 -50.835938 45.761719 -47.753906 L 45.761719 -47.355469 L 66.355469 -47.355469 L 66.355469 -48.546875 C 66.058594 -62.179688 54.417969 -68.746094 39.394531 -69.539062 Z M 27.855469 -69.042969 C 15.320312 -67.25 5.371094 -60.886719 5.371094 -47.753906 C 5.371094 -21.089844 45.761719 -28.949219 45.761719 -19.101562 L 45.761719 0.695312 C 58.996094 -1.195312 68.246094 -8.257812 68.246094 -22.683594 C 67.75 -48.050781 27.855469 -39.992188 27.855469 -50.238281 Z M 34.222656 -14.523438 C 28.550781 -14.824219 25.070312 -16.515625 25.070312 -23.179688 L 4.277344 -23.179688 C 4.277344 -4.972656 17.011719 0.496094 34.222656 1.09375 Z M 34.222656 -14.523438 "/></g></g></g><g fill="#000000" fill-opacity="1"><g transform="translate(310.809301, 98.858394)"><g><path d="M 43.773438 -68.445312 L 25.964844 -68.445312 L 0.996094 0 L 23.476562 0 Z M 53.621094 -62.675781 L 44.171875 -30.542969 L 45.761719 -24.972656 L 42.480469 -24.972656 L 37.902344 -9.648438 L 50.339844 -9.648438 L 53.222656 0 L 76.503906 0 Z M 53.621094 -62.675781 "/></g></g></g><g fill="#000000" fill-opacity="1"><g transform="translate(388.20185, 98.858394)"><g><path d="M 75.507812 -68.445312 L 55.3125 -68.445312 L 55.3125 -34.71875 L 39.097656 -53.722656 L 39.097656 -19.898438 L 56.308594 0 L 75.507812 0 Z M 27.558594 -33.226562 L 27.558594 -67.25 L 26.5625 -68.445312 L 7.363281 -68.445312 L 7.363281 0 L 27.558594 0 Z M 27.558594 -33.226562 "/></g></g></g></svg>