<svg width="292" height="292" viewBox="0 0 292 292" fill="none" xmlns="http://www.w3.org/2000/svg">
<path d="M268.279 143.538C268.279 145.296 268.234 147.054 268.151 148.813C268.065 150.565 267.931 152.321 267.762 154.071C267.59 155.82 267.376 157.564 267.117 159.304C266.862 161.045 266.562 162.777 266.217 164.502C265.876 166.225 265.49 167.942 265.065 169.65C264.637 171.355 264.171 173.048 263.66 174.732C263.149 176.417 262.599 178.083 262.008 179.738C261.417 181.395 260.787 183.035 260.113 184.659C259.439 186.284 258.732 187.891 257.98 189.483C257.229 191.073 256.439 192.644 255.61 194.191C254.784 195.742 253.92 197.275 253.017 198.781C252.114 200.29 251.175 201.775 250.201 203.239C249.224 204.701 248.217 206.138 247.171 207.549C246.126 208.963 245.044 210.347 243.931 211.708C242.817 213.068 241.67 214.399 240.491 215.703C239.312 217.007 238.103 218.278 236.861 219.52C235.619 220.767 234.348 221.979 233.047 223.159C231.749 224.338 230.415 225.487 229.061 226.604C227.703 227.718 226.319 228.802 224.911 229.848C223.5 230.896 222.063 231.909 220.607 232.887C219.146 233.864 217.663 234.802 216.157 235.708C214.651 236.611 213.125 237.476 211.577 238.304C210.03 239.136 208.458 239.926 206.872 240.678C205.289 241.429 203.682 242.142 202.06 242.816C200.438 243.491 198.802 244.12 197.15 244.715C195.496 245.306 193.829 245.858 192.148 246.369C190.47 246.877 188.777 247.346 187.075 247.777C185.37 248.202 183.659 248.588 181.939 248.93C180.216 249.274 178.487 249.574 176.749 249.833C175.015 250.091 173.271 250.305 171.528 250.48C169.778 250.649 168.028 250.78 166.273 250.863C164.523 250.952 162.768 250.997 161.009 250.997C159.257 250.997 157.501 250.952 155.746 250.863C153.996 250.78 152.244 250.649 150.497 250.48C148.748 250.305 147.01 250.091 145.272 249.833C143.535 249.574 141.806 249.274 140.086 248.93C138.363 248.588 136.649 248.202 134.947 247.777C133.245 247.346 131.552 246.877 129.871 246.369C128.193 245.858 126.526 245.306 124.875 244.715C123.22 244.12 121.584 243.491 119.962 242.816C118.34 242.142 116.736 241.429 115.147 240.678C113.561 239.926 111.992 239.136 110.448 238.304C108.897 237.476 107.37 236.611 105.864 235.708C104.358 234.802 102.876 233.864 101.418 232.887C99.9563 231.909 98.5216 230.896 97.1107 229.848C95.7027 228.802 94.3185 227.718 92.9611 226.604C91.6036 225.487 90.2758 224.338 88.9748 223.159C87.6738 221.979 86.4054 220.767 85.1608 219.52C83.9222 218.278 82.7103 217.007 81.531 215.703C80.3518 214.399 79.2052 213.068 78.0913 211.708C76.9804 210.347 75.8992 208.963 74.8536 207.549C73.8081 206.138 72.7952 204.701 71.8209 203.239C70.8436 201.775 69.908 200.29 69.005 198.781C68.102 197.275 67.2376 195.742 66.4089 194.191C65.5801 192.644 64.793 191.073 64.0415 189.483C63.2929 187.891 62.58 186.284 61.9087 184.659C61.2374 183.035 60.6077 181.395 60.0136 179.738C59.4225 178.083 58.873 176.417 58.3621 174.732C57.8512 173.048 57.3848 171.355 56.9571 169.65C56.5323 167.942 56.1492 166.225 55.8046 164.502C55.463 162.777 55.163 161.045 54.9046 159.304C54.6491 157.564 54.4323 155.82 54.26 154.071C54.0877 152.321 53.96 150.565 53.8739 148.813C53.7847 147.054 53.7432 145.296 53.7432 143.538C53.7432 141.779 53.7847 140.021 53.8739 138.265C53.96 136.507 54.0877 134.757 54.26 133.005C54.4323 131.255 54.6491 129.508 54.9046 127.768C55.163 126.033 55.463 124.301 55.8046 122.576C56.1492 120.847 56.5323 119.133 56.9571 117.428C57.3848 115.723 57.8512 114.027 58.3621 112.346C58.873 110.661 59.4225 108.992 60.0136 107.335C60.6077 105.68 61.2374 104.04 61.9087 102.416C62.58 100.791 63.2929 99.1839 64.0415 97.5947C64.793 96.0056 65.5801 94.4342 66.4089 92.8807C67.2376 91.3302 68.102 89.8005 69.005 88.2915C69.908 86.7826 70.8436 85.3003 71.8209 83.8389C72.7952 82.3745 73.8081 80.9369 74.8536 79.5259C75.8992 78.112 76.9804 76.7249 78.0913 75.3674C79.2052 74.007 80.3518 72.6762 81.531 71.3722C82.7103 70.0712 83.9222 68.7969 85.1608 67.5523C86.4054 66.3107 87.6738 65.0988 88.9748 63.9196C90.2758 62.7344 91.6036 61.5878 92.9611 60.4709C94.3185 59.3571 95.7027 58.2758 97.1107 57.2273C98.5216 56.1788 99.9563 55.1659 101.418 54.1916C102.876 53.2143 104.358 52.2697 105.864 51.3667C107.37 50.4637 108.897 49.5964 110.448 48.7677C111.992 47.9389 113.561 47.1518 115.147 46.3973C116.736 45.6458 118.34 44.9329 119.962 44.2586C121.584 43.5873 123.22 42.9546 124.875 42.3606C126.526 41.7695 128.193 41.217 129.871 40.7061C131.552 40.1981 133.245 39.7258 134.947 39.3011C136.649 38.8733 138.363 38.4902 140.086 38.1426C141.806 37.801 143.535 37.501 145.272 37.2426C147.01 36.9871 148.748 36.7703 150.497 36.598C152.244 36.4257 153.996 36.295 155.746 36.2089C157.501 36.1228 159.257 36.0812 161.009 36.0812C162.768 36.0812 164.523 36.1228 166.273 36.2089C168.028 36.295 169.778 36.4257 171.528 36.598C173.271 36.7703 175.015 36.9871 176.749 37.2426C178.487 37.501 180.216 37.801 181.939 38.1426C183.659 38.4902 185.37 38.8733 187.075 39.3011C188.777 39.7258 190.47 40.1981 192.148 40.7061C193.829 41.217 195.496 41.7695 197.15 42.3606C198.802 42.9546 200.438 43.5873 202.06 44.2586C203.682 44.9329 205.289 45.6458 206.872 46.3973C208.458 47.1518 210.03 47.9389 211.577 48.7677C213.125 49.5964 214.651 50.4637 216.157 51.3667C217.663 52.2697 219.146 53.2143 220.607 54.1916C222.063 55.1659 223.5 56.1788 224.911 57.2273C226.319 58.2758 227.703 59.3571 229.061 60.4709C230.415 61.5878 231.749 62.7344 233.047 63.9196C234.348 65.0988 235.619 66.3107 236.861 67.5523C238.103 68.7969 239.312 70.0712 240.491 71.3722C241.67 72.6762 242.817 74.007 243.931 75.3674C245.044 76.7249 246.126 78.112 247.171 79.5259C248.217 80.9369 249.224 82.3745 250.201 83.8389C251.175 85.3003 252.114 86.7826 253.017 88.2915C253.92 89.8005 254.784 91.3302 255.61 92.8807C256.439 94.4342 257.229 96.0056 257.98 97.5947C258.732 99.1839 259.439 100.791 260.113 102.416C260.787 104.04 261.417 105.68 262.008 107.335C262.599 108.992 263.149 110.661 263.66 112.346C264.171 114.027 264.637 115.723 265.065 117.428C265.49 119.133 265.876 120.847 266.217 122.576C266.562 124.301 266.862 126.033 267.117 127.768C267.376 129.508 267.59 131.255 267.762 133.005C267.931 134.757 268.065 136.507 268.151 138.265C268.234 140.021 268.279 141.779 268.279 143.538Z" fill="#ED1C24"/>
<path d="M268.278 143.538H107.379L105.178 142.54L28.9698 68.191L23.7836 73.5436L85.2763 133.516L11.9466 100.408L8.85742 107.231L89.2002 143.538H53.7963C53.7963 184.202 76.3177 219.567 109.524 237.826H108.267V256.136H208.149V240.081C243.767 222.559 268.278 185.934 268.278 143.538Z" fill="black"/>
<path d="M108.294 233.347H116.082V241.135H108.294V233.347Z" fill="black"/>
</svg>
